<svg width="211" height="211" viewBox="0 0 211 211" fill="none" xmlns="http://www.w3.org/2000/svg">
<g clip-path="url(#clip0_37_798)">
<path d="M211 0H0V211H211V0Z" fill="white"/>
<path d="M78.5083 165.15H83.3596C87.0336 165.15 90.3063 164.591 93.1768 163.474C96.0472 162.356 98.4588 160.819 100.411 158.864C102.42 156.908 103.941 154.589 104.946 151.935C106.037 149.196 106.554 146.235 106.554 143.022C106.554 139.809 106.008 136.931 104.946 134.193C103.855 131.455 102.334 129.108 100.296 127.152C98.3436 125.196 95.9325 123.66 93.062 122.542C90.1916 121.424 86.9474 120.866 83.3596 120.866H78.5083V165.15ZM57.3806 103.431H88.6702C94.2102 103.431 99.3771 104.521 104.2 106.672C109.08 108.852 113.328 111.758 116.916 115.389C120.591 118.966 123.461 123.157 125.557 127.99C127.652 132.74 128.686 137.741 128.686 142.994C128.686 148.246 127.652 153.164 125.557 157.997C123.548 162.747 120.706 166.966 117.031 170.598C113.443 174.23 109.195 177.136 104.314 179.315C99.4923 181.495 94.2964 182.556 88.6702 182.556H57.3806V103.431Z" fill="#0083F0"/>
<path d="M27.5817 134.92C27.5817 133.269 27.8943 131.727 28.548 130.268C29.2017 128.754 30.0827 127.433 31.2195 126.332C32.3563 125.231 33.6637 124.378 35.1699 123.745C36.733 123.112 38.3814 122.809 40.0867 122.809C41.7919 122.809 43.3834 123.112 44.8897 123.745C46.453 124.378 47.817 125.231 48.9538 126.332C50.0905 127.433 50.9715 128.754 51.6256 130.268C52.2792 131.727 52.5918 133.269 52.5918 134.92C52.5918 136.572 52.2792 138.168 51.6256 139.682C50.9715 141.141 50.0905 142.407 48.9538 143.508C47.817 144.608 46.453 145.462 44.8897 146.095C43.3834 146.728 41.7919 147.031 40.0867 147.031C38.3814 147.031 36.733 146.728 35.1699 146.095C33.6637 145.462 32.3563 144.608 31.2195 143.508C30.0827 142.407 29.2017 141.141 28.548 139.682C27.8943 138.168 27.5817 136.572 27.5817 134.92Z" fill="#0083F0"/>
<path d="M27.5817 170.176C27.5817 168.488 27.8943 166.912 28.548 165.421C29.2017 163.874 30.0827 162.523 31.2195 161.397C32.3563 160.272 33.6637 159.4 35.1699 158.753C36.733 158.105 38.3814 157.796 40.0867 157.796C41.7919 157.796 43.3834 158.105 44.8897 158.753C46.453 159.4 47.817 160.272 48.9538 161.397C50.0905 162.523 50.9715 163.874 51.6256 165.421C52.2792 166.912 52.5918 168.488 52.5918 170.176C52.5918 171.864 52.2792 173.497 51.6256 175.044C50.9715 176.535 50.0905 177.83 48.9538 178.955C47.817 180.08 46.453 180.953 44.8897 181.6C43.3834 182.247 41.7919 182.556 40.0867 182.556C38.3814 182.556 36.733 182.247 35.1699 181.6C33.6637 180.953 32.3563 180.08 31.2195 178.955C30.0827 177.83 29.2017 176.535 28.548 175.044C27.8943 173.497 27.5817 171.864 27.5817 170.176Z" fill="#0083F0"/>
</g>
<defs>
<clipPath id="clip0_37_798">
<rect width="211" height="211" rx="10" fill="white"/>
</clipPath>
</defs>
</svg>
