<svg width="70" height="70" viewBox="0 0 70 70" fill="none" xmlns="http://www.w3.org/2000/svg">
<g clip-path="url(#clip0_37_329)">
<path d="M70 0H0V70H70V0Z" fill="white"/>
<path d="M26.0454 54.7892H27.6549C28.8737 54.7892 29.9595 54.6037 30.9118 54.233C31.864 53.8622 32.6641 53.3524 33.3116 52.7036C33.9782 52.0548 34.4829 51.2854 34.8163 50.4048C35.1781 49.4964 35.3496 48.514 35.3496 47.4481C35.3496 46.382 35.1686 45.4274 34.8163 44.519C34.4543 43.6106 33.9496 42.832 33.2735 42.1832C32.6259 41.5344 31.826 41.0245 30.8737 40.6538C29.9214 40.283 28.8452 40.0976 27.6549 40.0976H26.0454V54.7892ZM19.0363 34.3137H29.4167C31.2546 34.3137 32.9687 34.6752 34.5687 35.389C36.1876 36.112 37.597 37.076 38.7875 38.2808C40.0065 39.4673 40.9588 40.8577 41.654 42.4613C42.3492 44.037 42.692 45.6962 42.692 47.4387C42.692 49.1813 42.3492 50.8127 41.654 52.4162C40.9874 53.9919 40.0446 55.3916 38.8255 56.5966C37.6351 57.8015 36.2258 58.7654 34.6067 59.4885C33.0069 60.2115 31.2832 60.5637 29.4167 60.5637H19.0363V34.3137Z" fill="#0083F0"/>
<path d="M9.15039 44.7602C9.15039 44.2123 9.25411 43.7009 9.47096 43.2168C9.68783 42.7147 9.98011 42.2764 10.3572 41.911C10.7344 41.5459 11.1681 41.2628 11.6678 41.0528C12.1864 40.8427 12.7333 40.7423 13.299 40.7423C13.8647 40.7423 14.3927 40.8427 14.8924 41.0528C15.411 41.2628 15.8635 41.5459 16.2407 41.911C16.6178 42.2764 16.91 42.7147 17.127 43.2168C17.3439 43.7009 17.4476 44.2123 17.4476 44.7602C17.4476 45.3081 17.3439 45.8376 17.127 46.3399C16.91 46.8239 16.6178 47.2439 16.2407 47.6092C15.8635 47.9744 15.411 48.2576 14.8924 48.4676C14.3927 48.6776 13.8647 48.778 13.299 48.778C12.7333 48.778 12.1864 48.6776 11.6678 48.4676C11.1681 48.2576 10.7344 47.9744 10.3572 47.6092C9.98011 47.2439 9.68783 46.8239 9.47096 46.3399C9.25411 45.8376 9.15039 45.3081 9.15039 44.7602Z" fill="#0083F0"/>
<path d="M9.15039 56.4566C9.15039 55.8965 9.25411 55.3738 9.47096 54.879C9.68783 54.3657 9.98011 53.9177 10.3572 53.5442C10.7344 53.1708 11.1681 52.8815 11.6678 52.6668C12.1864 52.452 12.7333 52.3494 13.299 52.3494C13.8647 52.3494 14.3927 52.452 14.8924 52.6668C15.411 52.8815 15.8635 53.1708 16.2407 53.5442C16.6178 53.9177 16.91 54.3657 17.127 54.879C17.3439 55.3738 17.4476 55.8965 17.4476 56.4566C17.4476 57.0166 17.3439 57.5581 17.127 58.0714C16.91 58.5661 16.6178 58.9956 16.2407 59.3689C15.8635 59.7422 15.411 60.0317 14.8924 60.2464C14.3927 60.4611 13.8647 60.5637 13.299 60.5637C12.7333 60.5637 12.1864 60.4611 11.6678 60.2464C11.1681 60.0317 10.7344 59.7422 10.3572 59.3689C9.98011 58.9956 9.68783 58.5661 9.47096 58.0714C9.25411 57.5581 9.15039 57.0166 9.15039 56.4566Z" fill="#0083F0"/>
</g>
<defs>
<clipPath id="clip0_37_329">
<rect width="70" height="70" rx="10" fill="white"/>
</clipPath>
</defs>
</svg>
