<svg width="211" height="211" viewBox="0 0 211 211" fill="none" xmlns="http://www.w3.org/2000/svg">
<rect width="211" height="211" rx="10" fill="white"/>
<path d="M30.9487 155.754C30.9487 155.647 17.7021 158.407 18.0051 158.314C20.4599 157.567 24.097 156.977 27.3875 156.392C37.6011 154.575 47.5684 152.684 58.0735 150.937C64.587 149.854 71.7684 148.952 79.0275 148.092C92.8468 146.455 106.629 144.809 121.395 143.538C124.35 143.283 127.729 143.012 130.999 143C134.679 142.987 135.33 144.086 135.635 144.62C137.152 147.284 133.342 149.777 129.527 152.285C128.113 153.214 127.356 154.135 127.025 155.104C126.842 155.639 126.495 156.244 127.043 156.776C127.8 157.51 133.748 157.511 136.536 157.485C144.77 157.41 152.369 156.142 159.017 155.264C161.218 154.973 163.034 154.812 165.658 154.812C169.739 154.812 169.724 155.77 170.147 156.44C170.534 157.053 170.494 157.665 170.57 158.281C170.6 158.521 170.924 159.033 171.484 159.261C172.025 159.48 173.602 159.248 174.544 159.248C176.73 159.248 177.905 159.01 179.309 158.695C180.77 158.367 183.363 157.724 185.527 157.583C185.816 157.564 189.131 157.559 189.071 157.583C189.888 157.783 190.185 159.517 189.887 160" stroke="url(#paint0_linear_140_3)" stroke-width="13" stroke-linecap="round"/>
<path d="M44.5723 95.707C44.4551 94.5742 44.0938 93.6074 43.4883 92.8066C42.9023 92.0059 42.082 91.4004 41.0273 90.9902C39.9727 90.5801 38.7129 90.375 37.248 90.375C35.8223 90.375 34.582 90.5801 33.5273 90.9902C32.4922 91.4004 31.7012 91.9766 31.1543 92.7188C30.6074 93.4414 30.334 94.2715 30.334 95.209C30.3145 96.6348 30.9004 97.748 32.0918 98.5488C33.3027 99.3496 34.9727 100.014 37.1016 100.541L40.9102 101.449C44.9336 102.348 48.0488 103.803 50.2559 105.814C52.4824 107.807 53.6055 110.502 53.625 113.9C53.625 116.459 52.9707 118.695 51.6621 120.609C50.3535 122.523 48.4688 123.998 46.0078 125.033C43.5469 126.068 40.6074 126.586 37.1895 126.586C33.7715 126.586 30.793 126.059 28.2539 125.004C25.7344 123.949 23.7812 122.396 22.3945 120.346C21.0078 118.275 20.2656 115.746 20.168 112.758H28.7227C28.8398 114.145 29.2598 115.316 29.9824 116.273C30.7051 117.23 31.6816 117.953 32.9121 118.441C34.1426 118.93 35.5391 119.174 37.1016 119.174C38.625 119.174 39.9629 118.949 41.1152 118.5C42.2676 118.051 43.1562 117.426 43.7812 116.625C44.4062 115.805 44.7188 114.877 44.7188 113.842C44.7188 112.904 44.4453 112.113 43.8984 111.469C43.3516 110.805 42.5508 110.248 41.4961 109.799C40.4609 109.33 39.123 108.891 37.4824 108.48L32.8242 107.367C29.1133 106.449 26.2617 105.053 24.2695 103.178C22.2969 101.283 21.3105 98.8223 21.3105 95.7949C21.3105 93.2754 21.9941 91.0488 23.3613 89.1152C24.748 87.1816 26.6523 85.6777 29.0742 84.6035C31.5156 83.5293 34.2695 82.9922 37.3359 82.9922C40.4219 82.9922 43.1465 83.5293 45.5098 84.6035C47.873 85.6582 49.709 87.1523 51.0176 89.0859C52.3262 91 53 93.207 53.0391 95.707H44.5723ZM52.7965 83.5781H61.5855V102.387H62.1422L77.5523 83.5781H88.1578L72.3082 102.562L88.3336 126H77.7574L66.0094 108.451L61.5855 113.871V126H52.7965V83.5781ZM122.31 104.789C122.31 109.281 121.45 113.178 119.732 116.479C118.032 119.76 115.679 122.27 112.671 124.008C109.683 125.727 106.294 126.586 102.505 126.586C98.716 126.586 95.3176 125.727 92.3098 124.008C89.3215 122.27 86.968 119.75 85.2492 116.449C83.55 113.148 82.7004 109.262 82.7004 104.789C82.7004 100.258 83.55 96.3516 85.2492 93.0703C86.968 89.7891 89.3215 87.2891 92.3098 85.5703C95.3176 83.8516 98.716 82.9922 102.505 82.9922C106.294 82.9922 109.683 83.8516 112.671 85.5703C115.679 87.2891 118.032 89.7891 119.732 93.0703C121.45 96.3516 122.31 100.258 122.31 104.789ZM113.404 104.789C113.404 101.801 112.954 99.2617 112.056 97.1719C111.177 95.082 109.917 93.5 108.277 92.4258C106.655 91.332 104.732 90.7852 102.505 90.7852C100.298 90.7852 98.3742 91.332 96.7336 92.4258C95.1125 93.5 93.8527 95.082 92.9543 97.1719C92.0559 99.2617 91.6066 101.801 91.6066 104.789C91.6066 107.777 92.0559 110.316 92.9543 112.406C93.8527 114.496 95.1125 116.088 96.7336 117.182C98.3742 118.256 100.298 118.793 102.505 118.793C104.732 118.793 106.655 118.256 108.277 117.182C109.917 116.088 111.177 114.496 112.056 112.406C112.954 110.316 113.404 107.777 113.404 104.789ZM160.886 104.789C160.886 109.281 160.026 113.178 158.307 116.479C156.608 119.76 154.255 122.27 151.247 124.008C148.259 125.727 144.87 126.586 141.081 126.586C137.292 126.586 133.893 125.727 130.886 124.008C127.897 122.27 125.544 119.75 123.825 116.449C122.126 113.148 121.276 109.262 121.276 104.789C121.276 100.258 122.126 96.3516 123.825 93.0703C125.544 89.7891 127.897 87.2891 130.886 85.5703C133.893 83.8516 137.292 82.9922 141.081 82.9922C144.87 82.9922 148.259 83.8516 151.247 85.5703C154.255 87.2891 156.608 89.7891 158.307 93.0703C160.026 96.3516 160.886 100.258 160.886 104.789ZM151.979 104.789C151.979 101.801 151.53 99.2617 150.632 97.1719C149.753 95.082 148.493 93.5 146.852 92.4258C145.231 91.332 143.307 90.7852 141.081 90.7852C138.874 90.7852 136.95 91.332 135.309 92.4258C133.688 93.5 132.429 95.082 131.53 97.1719C130.632 99.2617 130.182 101.801 130.182 104.789C130.182 107.777 130.632 110.316 131.53 112.406C132.429 114.496 133.688 116.088 135.309 117.182C136.95 118.256 138.874 118.793 141.081 118.793C143.307 118.793 145.231 118.256 146.852 117.182C148.493 116.088 149.753 114.496 150.632 112.406C151.53 110.316 151.979 107.777 151.979 104.789ZM160.672 83.5781H169.461V118.734H187.713V126H160.672V83.5781Z" fill="black"/>
<defs>
<linearGradient id="paint0_linear_140_3" x1="18" y1="151.5" x2="190" y2="151.5" gradientUnits="userSpaceOnUse">
<stop stop-color="#EBEEF9"/>
<stop offset="1" stop-color="#8899DD"/>
</linearGradient>
</defs>
</svg>
